<svg class="diagram-root" style="background: #f5f6f6" xmlns="http://www.w3.org/2000/svg" xmlns:xlink="http://www.w3.org/1999/xlink"><style>.diagram-root { font-family: "Helvetica Neue", sans-serif; font-size: 12px; } .t { overflow: visible; } .t-bg { y: 40; fill: #fff;   } .th { fill: #005aa0;   } .tht { fill: #fff; font-size: 14px;  } .tf { fill: #323c46; overflow: visible; } .tf.pk { fill: #005aa0; font-weight: bold; } .tf.fk { font-weight: bold; } .ty { fill: #adb1b5; font-weight: normal; text-anchor: end; } .r { fill: transparent; stroke: #c3c3c3; stroke-width: 1; } .l { stroke: 1; } .i { fill: #c2c7ce; stroke: #c2c7ce; } .i.ix { fill: #afb3b6; stroke: #000; } .fa { fill: transparent; overflow: visible; } .fa .bg.hover { fill: #f7f7f7; } .c { cy: 12; r: 4; stroke: #d2d2dc; fill: #d2d2dc; } .hr { fill: transparent; stroke: #323c46; stroke-opacity: 0.035; stroke-width: 13; } .dc { stroke: #fa5a3c; fill: #fa5a3c; } .x { stroke: white; stroke-width: 1; } .hl .th { fill: #1b9bff; } .hl .tht {  } .fhl .bg { fill: #e7f4ff; } .fhls .bg {  } .r.hl { stroke: #1b9bff; } .dim { opacity: 0.25; }</style><g class="drawing-wrapper" transform="translate(2, 18) scale(1,1)"><g class="rs"><path d="M 604 343 m -1, 0 a 1,1 0 1,0 2,0 a 1,1 0 1,0 -2,0 M 604 343 m -0.5, 0 a 0.5,0.5 0 1,0 1,0 a 0.5,0.5 0 1,0 -1,0  M604 343 L604 343 592 343 M 604 349 m -1, 0 a 1,1 0 1,0 2,0 a 1,1 0 1,0 -2,0 M 604 349 m -0.5, 0 a 0.5,0.5 0 1,0 1,0 a 0.5,0.5 0 1,0 -1,0  M604 349 L604 349 597 343 604 337 M 604 337 m -1, 0 a 1,1 0 1,0 2,0 a 1,1 0 1,0 -2,0 M 604 337 m -0.5, 0 a 0.5,0.5 0 1,0 1,0 a 0.5,0.5 0 1,0 -1,0  M592 343 Q 488.52 343, 385.03 358.5 T 178.05 374 M 166.05 374 m -1, 0 a 1,1 0 1,0 2,0 a 1,1 0 1,0 -2,0 M 166.05 374 m -0.5, 0 a 0.5,0.5 0 1,0 1,0 a 0.5,0.5 0 1,0 -1,0  M166.05 374 L166.05 374 178.05 374 M172.05 380 L172.05 380 172.05 368" id="h3227293300" class="r"></path><path d="M 604 368 m -1, 0 a 1,1 0 1,0 2,0 a 1,1 0 1,0 -2,0 M 604 368 m -0.5, 0 a 0.5,0.5 0 1,0 1,0 a 0.5,0.5 0 1,0 -1,0  M604 368 L604 368 592 368 M 604 374 m -1, 0 a 1,1 0 1,0 2,0 a 1,1 0 1,0 -2,0 M 604 374 m -0.5, 0 a 0.5,0.5 0 1,0 1,0 a 0.5,0.5 0 1,0 -1,0  M604 374 L604 374 597 368 604 362 M 604 362 m -1, 0 a 1,1 0 1,0 2,0 a 1,1 0 1,0 -2,0 M 604 362 m -0.5, 0 a 0.5,0.5 0 1,0 1,0 a 0.5,0.5 0 1,0 -1,0  M592 368 Q 565.01 368, 538.02 418.5 T 484.03 469 M 472.03 469 m -1, 0 a 1,1 0 1,0 2,0 a 1,1 0 1,0 -2,0 M 472.03 469 m -0.5, 0 a 0.5,0.5 0 1,0 1,0 a 0.5,0.5 0 1,0 -1,0  M472.03 469 L472.03 469 484.03 469 M478.03 475 L478.03 475 478.03 463" id="h3573151104" class="r"></path><path d="M 378 202 m -1, 0 a 1,1 0 1,0 2,0 a 1,1 0 1,0 -2,0 M 378 202 m -0.5, 0 a 0.5,0.5 0 1,0 1,0 a 0.5,0.5 0 1,0 -1,0  M378 202 L378 202 366 202 M 378 208 m -1, 0 a 1,1 0 1,0 2,0 a 1,1 0 1,0 -2,0 M 378 208 m -0.5, 0 a 0.5,0.5 0 1,0 1,0 a 0.5,0.5 0 1,0 -1,0  M378 208 L378 208 371 202 378 196 M 378 196 m -1, 0 a 1,1 0 1,0 2,0 a 1,1 0 1,0 -2,0 M 378 196 m -0.5, 0 a 0.5,0.5 0 1,0 1,0 a 0.5,0.5 0 1,0 -1,0  M366 202 Q 319.01 202, 272.02 288 T 178.05 374 M 166.05 374 m -1, 0 a 1,1 0 1,0 2,0 a 1,1 0 1,0 -2,0 M 166.05 374 m -0.5, 0 a 0.5,0.5 0 1,0 1,0 a 0.5,0.5 0 1,0 -1,0  M166.05 374 L166.05 374 178.05 374 M172.05 380 L172.05 380 172.05 368" id="h731477518" class="r"></path><path d="M 378 227 m -1, 0 a 1,1 0 1,0 2,0 a 1,1 0 1,0 -2,0 M 378 227 m -0.5, 0 a 0.5,0.5 0 1,0 1,0 a 0.5,0.5 0 1,0 -1,0  M378 227 L378 227 366 227 M 378 233 m -1, 0 a 1,1 0 1,0 2,0 a 1,1 0 1,0 -2,0 M 378 233 m -0.5, 0 a 0.5,0.5 0 1,0 1,0 a 0.5,0.5 0 1,0 -1,0  M378 233 L378 233 371 227 378 221 M 378 221 m -1, 0 a 1,1 0 1,0 2,0 a 1,1 0 1,0 -2,0 M 378 221 m -0.5, 0 a 0.5,0.5 0 1,0 1,0 a 0.5,0.5 0 1,0 -1,0  M366 227 Q 315.34 227, 264.68 157 T 163.35 87 M 151.35 87 m -1, 0 a 1,1 0 1,0 2,0 a 1,1 0 1,0 -2,0 M 151.35 87 m -0.5, 0 a 0.5,0.5 0 1,0 1,0 a 0.5,0.5 0 1,0 -1,0  M151.35 87 L151.35 87 163.35 87 M157.35 93 L157.35 93 157.35 81" id="h2141843881" class="r"></path><path d="M 635 91 m -1, 0 a 1,1 0 1,0 2,0 a 1,1 0 1,0 -2,0 M 635 91 m -0.5, 0 a 0.5,0.5 0 1,0 1,0 a 0.5,0.5 0 1,0 -1,0  M635 91 L635 91 623 91 M 635 97 m -1, 0 a 1,1 0 1,0 2,0 a 1,1 0 1,0 -2,0 M 635 97 m -0.5, 0 a 0.5,0.5 0 1,0 1,0 a 0.5,0.5 0 1,0 -1,0  M635 97 L635 97 628 91 635 85 M 635 85 m -1, 0 a 1,1 0 1,0 2,0 a 1,1 0 1,0 -2,0 M 635 85 m -0.5, 0 a 0.5,0.5 0 1,0 1,0 a 0.5,0.5 0 1,0 -1,0  M623 91 Q 508.09 91, 393.18 89 T 163.35 87 M 151.35 87 m -1, 0 a 1,1 0 1,0 2,0 a 1,1 0 1,0 -2,0 M 151.35 87 m -0.5, 0 a 0.5,0.5 0 1,0 1,0 a 0.5,0.5 0 1,0 -1,0  M151.35 87 L151.35 87 163.35 87 M157.35 93 L157.35 93 157.35 81" id="h2084686707" class="r"></path><path d="M 635 116 m -1, 0 a 1,1 0 1,0 2,0 a 1,1 0 1,0 -2,0 M 635 116 m -0.5, 0 a 0.5,0.5 0 1,0 1,0 a 0.5,0.5 0 1,0 -1,0  M635 116 L635 116 623 116 M 635 122 m -1, 0 a 1,1 0 1,0 2,0 a 1,1 0 1,0 -2,0 M 635 122 m -0.5, 0 a 0.5,0.5 0 1,0 1,0 a 0.5,0.5 0 1,0 -1,0  M635 122 L635 122 628 116 635 110 M 635 110 m -1, 0 a 1,1 0 1,0 2,0 a 1,1 0 1,0 -2,0 M 635 110 m -0.5, 0 a 0.5,0.5 0 1,0 1,0 a 0.5,0.5 0 1,0 -1,0  M623 116 Q 508.09 116, 393.18 101.5 T 163.35 87 M 151.35 87 m -1, 0 a 1,1 0 1,0 2,0 a 1,1 0 1,0 -2,0 M 151.35 87 m -0.5, 0 a 0.5,0.5 0 1,0 1,0 a 0.5,0.5 0 1,0 -1,0  M151.35 87 L151.35 87 163.35 87 M157.35 93 L157.35 93 157.35 81" id="h1386642455" class="r"></path></g><g class="hrs"></g><g class="ts"><svg width="121.35" height="175" x="30" y="30" id="h1537667952" class="t"><rect height="40" width="121.35" class="th"></rect><text x="13" y="25" class="tht">User</text><rect height="135" width="121.35" class="t-bg" y="40"></rect><text x="13" y="61" class="tf pk">UserID<tspan x="108.35" class="ty">int</tspan></text><path d="M7,14A2,2 0 0,1 5,12A2,2 0 0,1 7,10A2,2 0 0,1 9,12A2,2 0 0,1 7,14M12.65,10C11.83,7.67 9.61,6 7, 6A6, 6 0 0, 0 1, 12A6, 6 0 0, 0 7, 18C9.61, 18 11.83, 16.33 12.65, 14H17V18H21V14H23V10H12.65Z" class="i pk" transform="translate(75.676171875, 48) scale(0.65)"></path><text x="13" y="86" class="tf">Email<tspan x="108.35" class="ty">string</tspan></text><path d="M22,18V22H18V19H15V16H12L9.74,13.74C9.19,13.91 8.61,14 8,14A6,6 0 0,1 2,8A6,6 0 0,1 8,2A6,6 0 0,1 14,8C14,8.61 13.91, 9.19 13.74, 9.74L22, 18M7, 5A2, 2 0 0, 0 5, 7A2, 2 0 0, 0 7, 9A2, 2 0 0, 0 9, 7A2, 2 0 0, 0 7, 5Z" class="i uq" transform="translate(63.006249999999994, 75.5) scale(0.5)"></path><text x="13" y="111" class="tf">Login<tspan x="108.35" class="ty">string</tspan></text><path d="M814.545 581.818v-23.273H535.273v-93.09h-46.546v93.09H209.455v139.637H256V605.09h232.727v93.09h46.546v-93.09H768v93.09h46.545V581.819zM674.91 465.455H349.091V139.636h325.818v325.819zM325.82 884.364H139.635V698.182h186.182v186.182z m279.272 0H418.909V698.182h186.182v186.182z m279.273 0H698.182V698.182h186.182v186.182zM395.636 418.909h232.728V186.182H395.636v232.727zM186.182 837.82h93.09v-93.092h-93.09v93.091z m279.273 0h93.09v-93.092h-93.09v93.091z m279.272 0h93.091v-93.092h-93.09v93.091z" class="i ix" transform="translate(64.00625, 100) scale(0.014)"></path><text x="13" y="136" class="tf">Name<tspan x="108.35" class="ty">string</tspan></text><text x="13" y="161" class="tf">Birthday<tspan x="108.35" class="ty">date</tspan></text></svg><svg width="140.05" height="200" x="26" y="317" id="h2744470858" class="t"><rect height="40" width="140.05" class="th"></rect><text x="13" y="25" class="tht">Film</text><rect height="160" width="140.05" class="t-bg" y="40"></rect><text x="13" y="61" class="tf pk">FilmID<tspan x="127.05000000000001" class="ty">int</tspan></text><path d="M7,14A2,2 0 0,1 5,12A2,2 0 0,1 7,10A2,2 0 0,1 9,12A2,2 0 0,1 7,14M12.65,10C11.83,7.67 9.61,6 7, 6A6, 6 0 0, 0 1, 12A6, 6 0 0, 0 7, 18C9.61, 18 11.83, 16.33 12.65, 14H17V18H21V14H23V10H12.65Z" class="i pk" transform="translate(94.37617187500001, 48) scale(0.65)"></path><text x="13" y="86" class="tf">Name<tspan x="127.05000000000001" class="ty">string</tspan></text><text x="13" y="111" class="tf">Description<tspan x="127.05000000000001" class="ty">string</tspan></text><text x="13" y="136" class="tf">ReleaseDate<tspan x="127.05000000000001" class="ty">date</tspan></text><text x="13" y="161" class="tf">Duration<tspan x="127.05000000000001" class="ty">int</tspan></text><text x="13" y="186" class="tf">MpaaRating<tspan x="127.05000000000001" class="ty">string</tspan></text></svg><svg width="116.01" height="100" x="378" y="145" id="h1226647651" class="t"><rect height="40" width="116.01" class="th"></rect><text x="13" y="25" class="tht">FilmLike</text><rect height="60" width="116.01" class="t-bg" y="40"></rect><text x="13" y="61" class="tf pk">FilmID<tspan x="103.01" class="ty">int</tspan></text><path d="M7,14A2,2 0 0,1 5,12A2,2 0 0,1 7,10A2,2 0 0,1 9,12A2,2 0 0,1 7,14M12.65,10C11.83,7.67 9.61,6 7, 6A6, 6 0 0, 0 1, 12A6, 6 0 0, 0 7, 18C9.61, 18 11.83, 16.33 12.65, 14H17V18H21V14H23V10H12.65Z" class="i pk" transform="translate(70.336171875, 48) scale(0.65)"></path><text x="13" y="86" class="tf pk">UserID<tspan x="103.01" class="ty">int</tspan></text><path d="M7,14A2,2 0 0,1 5,12A2,2 0 0,1 7,10A2,2 0 0,1 9,12A2,2 0 0,1 7,14M12.65,10C11.83,7.67 9.61,6 7, 6A6, 6 0 0, 0 1, 12A6, 6 0 0, 0 7, 18C9.61, 18 11.83, 16.33 12.65, 14H17V18H21V14H23V10H12.65Z" class="i pk" transform="translate(70.336171875, 73) scale(0.65)"></path></svg><svg width="124.03" height="100" x="604" y="286" id="h950959793" class="t"><rect height="40" width="124.03" class="th"></rect><text x="13" y="25" class="tht">FilmGenre</text><rect height="60" width="124.03" class="t-bg" y="40"></rect><text x="13" y="61" class="tf pk">FilmID<tspan x="111.03" class="ty">int</tspan></text><path d="M7,14A2,2 0 0,1 5,12A2,2 0 0,1 7,10A2,2 0 0,1 9,12A2,2 0 0,1 7,14M12.65,10C11.83,7.67 9.61,6 7, 6A6, 6 0 0, 0 1, 12A6, 6 0 0, 0 7, 18C9.61, 18 11.83, 16.33 12.65, 14H17V18H21V14H23V10H12.65Z" class="i pk" transform="translate(78.356171875, 48) scale(0.65)"></path><text x="13" y="86" class="tf pk">GenreID<tspan x="111.03" class="ty">int</tspan></text><path d="M7,14A2,2 0 0,1 5,12A2,2 0 0,1 7,10A2,2 0 0,1 9,12A2,2 0 0,1 7,14M12.65,10C11.83,7.67 9.61,6 7, 6A6, 6 0 0, 0 1, 12A6, 6 0 0, 0 7, 18C9.61, 18 11.83, 16.33 12.65, 14H17V18H21V14H23V10H12.65Z" class="i pk" transform="translate(78.356171875, 73) scale(0.65)"></path></svg><svg width="124.03" height="100" x="348" y="412" id="h807582512" class="t"><rect height="40" width="124.03" class="th"></rect><text x="13" y="25" class="tht">Genre</text><rect height="60" width="124.03" class="t-bg" y="40"></rect><text x="13" y="61" class="tf pk">GenreID<tspan x="111.03" class="ty">int</tspan></text><path d="M7,14A2,2 0 0,1 5,12A2,2 0 0,1 7,10A2,2 0 0,1 9,12A2,2 0 0,1 7,14M12.65,10C11.83,7.67 9.61,6 7, 6A6, 6 0 0, 0 1, 12A6, 6 0 0, 0 7, 18C9.61, 18 11.83, 16.33 12.65, 14H17V18H21V14H23V10H12.65Z" class="i pk" transform="translate(78.356171875, 48) scale(0.65)"></path><text x="13" y="86" class="tf">Name<tspan x="111.03" class="ty">string</tspan></text><path d="M22,18V22H18V19H15V16H12L9.74,13.74C9.19,13.91 8.61,14 8,14A6,6 0 0,1 2,8A6,6 0 0,1 8,2A6,6 0 0,1 14,8C14,8.61 13.91, 9.19 13.74, 9.74L22, 18M7, 5A2, 2 0 0, 0 5, 7A2, 2 0 0, 0 7, 9A2, 2 0 0, 0 9, 7A2, 2 0 0, 0 7, 5Z" class="i uq" transform="translate(65.68625, 75.5) scale(0.5)"></path></svg><svg width="124.69" height="125" x="635" y="34" id="h1016576128" class="t"><rect height="40" width="124.69" class="th"></rect><text x="13" y="25" class="tht">Friendship</text><rect height="85" width="124.69" class="t-bg" y="40"></rect><text x="13" y="61" class="tf pk">UserID<tspan x="111.69" class="ty">int</tspan></text><path d="M7,14A2,2 0 0,1 5,12A2,2 0 0,1 7,10A2,2 0 0,1 9,12A2,2 0 0,1 7,14M12.65,10C11.83,7.67 9.61,6 7, 6A6, 6 0 0, 0 1, 12A6, 6 0 0, 0 7, 18C9.61, 18 11.83, 16.33 12.65, 14H17V18H21V14H23V10H12.65Z" class="i pk" transform="translate(79.016171875, 48) scale(0.65)"></path><text x="13" y="86" class="tf pk">FriendID<tspan x="111.69" class="ty">int</tspan></text><path d="M7,14A2,2 0 0,1 5,12A2,2 0 0,1 7,10A2,2 0 0,1 9,12A2,2 0 0,1 7,14M12.65,10C11.83,7.67 9.61,6 7, 6A6, 6 0 0, 0 1, 12A6, 6 0 0, 0 7, 18C9.61, 18 11.83, 16.33 12.65, 14H17V18H21V14H23V10H12.65Z" class="i pk" transform="translate(79.016171875, 73) scale(0.65)"></path><text x="13" y="111" class="tf">Status<tspan x="111.69" class="ty">string</tspan></text></svg></g></g><text class="qdbd-link" x="10" y="20">www.quickdatabasediagrams.com</text></svg>